<svg width="351" height="100" viewBox="0 0 351 100" fill="none" xmlns="http://www.w3.org/2000/svg">
<path d="M342.124 24.6442C346.489 24.6442 350.028 21.0857 350.028 16.6961C350.028 12.3064 346.489 8.74792 342.124 8.74792C337.759 8.74792 334.221 12.3064 334.221 16.6961C334.221 21.0857 337.759 24.6442 342.124 24.6442Z" fill="#FF7C66"/>
<path d="M109.284 35.4395C128.025 35.4395 142.013 49.586 142.013 67.7238C142.013 85.8616 128.025 99.9967 109.284 99.9967C90.5425 99.9967 76.5435 85.8616 76.5435 67.7238C76.5435 49.586 90.5311 35.4395 109.284 35.4395ZM109.284 88.0459C120.895 88.0459 129.31 79.2057 129.31 67.781C129.31 56.3562 120.895 47.4474 109.284 47.4474C97.6728 47.4474 89.2461 56.2991 89.2461 67.7238C89.2461 79.1486 97.6614 88.0459 109.284 88.0459Z" fill="#033D58"/>
<path d="M182.282 35.4395C201.035 35.4395 215.023 49.586 215.023 67.7238C215.023 85.8616 201.035 99.9967 182.282 99.9967C163.53 99.9967 149.542 85.8616 149.542 67.7238C149.542 49.586 163.541 35.4395 182.282 35.4395ZM182.282 88.0459C193.905 88.0459 202.32 79.2057 202.32 67.781C202.32 56.3562 193.905 47.5046 182.282 47.5046C170.66 47.5046 162.256 56.3562 162.256 67.781C162.256 79.2057 170.671 88.0459 182.282 88.0459Z" fill="#033D58"/>
<path d="M335.773 97.3093V36.8462C335.772 36.662 335.807 36.4793 335.876 36.3087C335.945 36.1381 336.047 35.983 336.176 35.8522C336.305 35.7214 336.458 35.6176 336.627 35.5468C336.796 35.476 336.978 35.4395 337.161 35.4395H347.089C347.272 35.438 347.453 35.473 347.623 35.5424C347.793 35.6118 347.947 35.7144 348.077 35.8441C348.207 35.9738 348.31 36.1281 348.381 36.2981C348.451 36.4682 348.488 36.6505 348.487 36.8347V97.3093C348.488 97.4935 348.451 97.6758 348.381 97.8459C348.31 98.0159 348.207 98.1702 348.077 98.2999C347.947 98.4296 347.793 98.5322 347.623 98.6016C347.453 98.671 347.272 98.706 347.089 98.7045H337.161C336.793 98.7045 336.44 98.5575 336.18 98.2959C335.92 98.0342 335.773 97.6793 335.773 97.3093Z" fill="#033D58"/>
<path d="M298.642 35.439C288.055 35.439 280.344 40.9283 276.626 47.001C272.714 39.8305 265.254 35.439 254.666 35.439C243.817 35.439 237.983 41.3858 235.993 44.5879V34.7414C235.992 34.4958 235.926 34.2549 235.803 34.0427C235.68 33.8305 235.504 33.6543 235.293 33.5317C235.081 33.4091 234.841 33.3444 234.597 33.3439C234.353 33.3435 234.113 33.4073 233.901 33.5291L223.586 39.5217C223.474 39.5868 223.381 39.68 223.315 39.7922C223.249 39.9044 223.213 40.0319 223.211 40.1621V97.3431C223.211 97.5272 223.247 97.7096 223.318 97.8796C223.388 98.0497 223.491 98.204 223.621 98.3337C223.751 98.4634 223.906 98.5659 224.075 98.6354C224.245 98.7048 224.427 98.7398 224.61 98.7383H234.594C234.778 98.7398 234.959 98.7048 235.129 98.6354C235.298 98.5659 235.453 98.4634 235.583 98.3337C235.713 98.204 235.816 98.0497 235.886 97.8796C235.957 97.7096 235.993 97.5272 235.993 97.3431V63.7893C235.993 53.4967 243.499 47.5842 252.676 47.5842C261.853 47.5842 267.244 53.5196 267.244 63.7893V97.3087C267.244 97.4929 267.28 97.6753 267.35 97.8453C267.421 98.0154 267.524 98.1697 267.654 98.2994C267.784 98.4291 267.938 98.5316 268.108 98.6011C268.278 98.6705 268.459 98.7055 268.642 98.704H278.616C278.798 98.7055 278.979 98.6704 279.148 98.6009C279.317 98.5313 279.471 98.4286 279.6 98.2987C279.729 98.1688 279.831 98.0144 279.901 97.8445C279.97 97.6745 280.005 97.4924 280.003 97.3087V63.0002C280.333 53.2451 287.713 47.5728 296.697 47.5728C305.681 47.5728 311.208 53.5081 311.208 63.7778V97.3087C311.208 97.6788 311.354 98.0337 311.615 98.2953C311.875 98.557 312.228 98.704 312.596 98.704H322.592C322.774 98.704 322.954 98.6679 323.123 98.5978C323.291 98.5276 323.444 98.4249 323.573 98.2953C323.701 98.1658 323.804 98.0119 323.873 97.8427C323.943 97.6734 323.979 97.492 323.979 97.3087V61.0675C323.934 46.0289 315.075 35.439 298.642 35.439Z" fill="#033D58"/>
<path d="M35.4354 35.4394C27.0265 35.3216 18.8905 38.4389 12.6913 44.1537V1.39385C12.6908 1.15027 12.627 0.911061 12.5061 0.7C12.3852 0.488939 12.2114 0.313385 12.0021 0.190798C11.7928 0.0682111 11.5552 0.0028624 11.313 0.00125123C11.0708 -0.00035993 10.8324 0.0618226 10.6215 0.181614L0.386651 6.12843C0.271587 6.19119 0.17516 6.28355 0.107226 6.39607C0.0392923 6.50859 0.00228936 6.63724 0 6.76886L0 97.3091C0 97.6791 0.146172 98.034 0.406359 98.2957C0.666546 98.5573 1.01944 98.7043 1.3874 98.7043H11.3721C11.7401 98.7043 12.0929 98.5573 12.3531 98.2957C12.6133 98.034 12.7595 97.6791 12.7595 97.3091V91.2937C18.9605 97.0043 27.0963 100.117 35.5037 99.9966C54.188 99.9966 68.2326 85.8615 68.2326 67.7237C68.2326 49.5859 54.188 35.4394 35.4354 35.4394ZM35.4354 88.0458C23.8814 88.0458 15.4092 79.1485 15.4092 67.7237C15.4092 56.299 23.8814 47.4474 35.4354 47.4474C46.9895 47.4474 55.4731 56.299 55.4731 67.7237C55.4731 79.1485 47.0577 88.0458 35.4354 88.0458Z" fill="#033D58"/>
</svg>
